<svg width="24" height="24" viewBox="0 0 24 24" fill="none" xmlns="http://www.w3.org/2000/svg">
<g clip-path="url(#clip0_519_5336)">
<path d="M22.717 10.5495C21.7617 7.26743 20.6844 5.57159 20.667 5.54117C20.6056 5.46622 19.0833 3.64447 15.4143 2.297L14.9295 3.617C16.6749 4.25806 17.9133 5.04012 18.5943 5.54543C16.5611 4.93826 14.1423 4.5664 12 4.5664C9.85772 4.5664 7.43892 4.93826 5.40567 5.54543C6.08667 5.04017 7.32502 4.25806 9.0705 3.617L8.58567 2.297C4.91672 3.64447 3.39441 5.46622 3.333 5.54117C3.31561 5.57159 2.23828 7.26743 1.28306 10.5495C0.362438 13.7125 0.0127031 18.1744 0 18.3534C0.0820312 18.4816 1.96875 21.7029 7.11061 21.7029L8.41392 19.8156C6.95377 19.4279 5.56144 18.8027 4.28691 17.9543L5.06611 16.7837C7.12228 18.1523 9.51998 18.8757 12 18.8757C14.48 18.8757 16.8777 18.1523 18.9339 16.7837L19.7131 17.9543C18.4386 18.8027 17.0462 19.4279 15.5861 19.8156L16.8894 21.7029C22.0313 21.7029 23.918 18.4816 24 18.3534C23.9873 18.1744 23.6376 13.7125 22.717 10.5495V10.5495ZM8.74884 14.2284H7.34259V11.8846H8.74884V14.2284ZM16.6574 14.2284H15.2512V11.8846H16.6574V14.2284Z" fill="white"/>
</g>
<defs>
<clipPath id="clip0_519_5336">
<rect width="24" height="24" fill="white"/>
</clipPath>
</defs>
</svg>
